<?xml version="1.0" encoding="UTF-8" standalone="no"?>
<svg
   version="1.1"
   id="Layer_1"
   x="0px"
   y="0px"
   width="868.5968"
   viewBox="0 0 868.5968 868.5968"
   enable-background="new 0 0 1024 1024"
   xml:space="preserve"
   sodipodi:docname="icon.svg"
   inkscape:version="1.1.2 (0a00cf5339, 2022-02-04)"
   inkscape:export-filename="/home/srklono/Downloads/tach2.png"
   inkscape:export-xdpi="150"
   inkscape:export-ydpi="150"
   height="868.5968"
   xmlns:inkscape="http://www.inkscape.org/namespaces/inkscape"
   xmlns:sodipodi="http://sodipodi.sourceforge.net/DTD/sodipodi-0.dtd"
   xmlns="http://www.w3.org/2000/svg"
   xmlns:svg="http://www.w3.org/2000/svg"><defs
   id="defs37"><inkscape:path-effect
     effect="powerclip"
     id="path-effect1479"
     is_visible="true"
     lpeversion="1"
     inverse="true"
     flatten="false"
     hide_clip="false"
     message="Use fill-rule evenodd on &lt;b&gt;fill and stroke&lt;/b&gt; dialog if no flatten result after convert clip to paths." /><clipPath
     clipPathUnits="userSpaceOnUse"
     id="clipPath1475"><circle
       style="display:none;fill:#090909;fill-opacity:1;stroke:none;stroke-width:390.907;stroke-linecap:round;stroke-linejoin:round;stroke-miterlimit:4;stroke-dasharray:none;stroke-opacity:1;paint-order:stroke fill markers"
       id="circle1477"
       cx="434.2984"
       cy="434.2984"
       r="332.4382"
       d="M 766.7366,434.2984 A 332.4382,332.4382 0 0 1 434.2984,766.7366 332.4382,332.4382 0 0 1 101.8602,434.2984 332.4382,332.4382 0 0 1 434.2984,101.8602 332.4382,332.4382 0 0 1 766.7366,434.2984 Z" /><path
       id="lpe_path-effect1479"
       style="fill:#090909;fill-opacity:1;stroke:none;stroke-width:390.907;stroke-linecap:round;stroke-linejoin:round;stroke-miterlimit:4;stroke-dasharray:none;stroke-opacity:1;paint-order:stroke fill markers"
       class="powerclip"
       d="M -5,-5 H 873.5968 V 873.5968 H -5 Z M 766.7366,434.2984 A 332.4382,332.4382 0 0 0 434.2984,101.8602 332.4382,332.4382 0 0 0 101.8602,434.2984 332.4382,332.4382 0 0 0 434.2984,766.7366 332.4382,332.4382 0 0 0 766.7366,434.2984 Z" /></clipPath></defs><sodipodi:namedview
   id="namedview35"
   pagecolor="#ffffff"
   bordercolor="#999999"
   borderopacity="1"
   inkscape:pageshadow="0"
   inkscape:pageopacity="0"
   inkscape:pagecheckerboard="0"
   showgrid="false"
   inkscape:zoom="0.3535534"
   inkscape:cx="490.73209"
   inkscape:cy="420.02142"
   inkscape:window-width="1366"
   inkscape:window-height="696"
   inkscape:window-x="0"
   inkscape:window-y="35"
   inkscape:window-maximized="1"
   inkscape:current-layer="Layer_1"
   inkscape:snap-global="true"
   inkscape:snap-bbox="true"
   inkscape:object-paths="true"
   inkscape:snap-midpoints="true"
   inkscape:snap-nodes="true"
   showguides="true" />
















<path
   style="fill:#ffffff;fill-opacity:1;stroke:none;stroke-width:208.408;stroke-linecap:round;stroke-linejoin:round;stroke-miterlimit:4;stroke-dasharray:none;stroke-opacity:1;paint-order:stroke fill markers"
   id="path9285"
   clip-path="url(#clipPath1475)"
   sodipodi:type="arc"
   sodipodi:cx="434.2984"
   sodipodi:cy="434.2984"
   sodipodi:rx="434.2984"
   sodipodi:ry="434.2984"
   d="M 868.5968,434.2984 A 434.2984,434.2984 0 0 1 434.2984,868.5968 434.2984,434.2984 0 0 1 0,434.2984 434.2984,434.2984 0 0 1 434.2984,0 434.2984,434.2984 0 0 1 868.5968,434.2984 Z"
   inkscape:path-effect="#path-effect1479" /><circle
   id="path2166"
   style="fill:#000000;stroke:none"
   cx="310.7406"
   cy="758.58081"
   r="1.5" /><g
   id="g10114"
   style="stroke:#ffffff;stroke-opacity:1"
   transform="translate(-20.057777,-12.339943)"><g
     id="g10126"
     transform="rotate(29.643134,-23.631731,484.93697)"
     style="stroke:#ffffff;stroke-opacity:1"><path
       style="fill:none;stroke:#ffffff;stroke-width:62.011;stroke-linecap:round;stroke-linejoin:miter;stroke-miterlimit:4;stroke-dasharray:none;stroke-opacity:1"
       d="m 169.03898,540.34575 83.46853,191.40547"
       id="path2164"
       sodipodi:nodetypes="cc" /><path
       style="fill:none;stroke:#ffffff;stroke-width:61.9107;stroke-linecap:round;stroke-linejoin:round;stroke-miterlimit:4;stroke-dasharray:none;stroke-opacity:1"
       d="M 422.18254,607.88588 252.50751,731.75122"
       id="path2172"
       sodipodi:nodetypes="cc" /></g></g><rect
   style="fill:#ffffff;fill-opacity:1;stroke:none;stroke-width:173.9;stroke-linecap:round;stroke-linejoin:round;stroke-miterlimit:4;stroke-dasharray:none;stroke-opacity:1;paint-order:stroke fill markers"
   id="rect11315"
   width="116.46923"
   height="81.036621"
   x="95.56926"
   y="726.37787" /><circle
   style="fill:#ffffff;fill-opacity:1;stroke:#ffffff;stroke-width:186.794;stroke-linecap:round;stroke-linejoin:round;stroke-miterlimit:4;stroke-dasharray:none;stroke-opacity:1;paint-order:stroke fill markers"
   id="path12666"
   cx="434.2984"
   cy="434.2984"
   r="130.12836" /></svg>
